<mxfile host="app.diagrams.net" agent="Mozilla/5.0 (Macintosh; Intel Mac OS X 10_15_7) AppleWebKit/537.36 (KHTML, like Gecko) Chrome/130.0.0.0 Safari/537.36" version="24.7.10">
  <diagram name="Page-1" id="b520641d-4fe3-3701-9064-5fc419738815">
    <mxGraphModel dx="969" dy="847" grid="1" gridSize="10" guides="1" tooltips="1" connect="1" arrows="1" fold="1" page="1" pageScale="1" pageWidth="1100" pageHeight="850" background="none" math="0" shadow="0">
      <root>
        <mxCell id="0" />
        <mxCell id="1" parent="0" />
        <mxCell id="21ea969265ad0168-18" value="Camera" style="swimlane;html=1;fontStyle=0;childLayout=stackLayout;horizontal=1;startSize=26;fillColor=#dae8fc;horizontalStack=0;resizeParent=1;resizeLast=0;collapsible=1;marginBottom=0;swimlaneFillColor=#ffffff;align=center;rounded=1;shadow=0;comic=0;labelBackgroundColor=none;strokeWidth=1;fontFamily=Verdana;fontSize=12;strokeColor=#6c8ebf;" parent="1" vertex="1">
          <mxGeometry x="110" y="150" width="160" height="80" as="geometry" />
        </mxCell>
        <mxCell id="21ea969265ad0168-19" value="Compressed RGB Image" style="text;html=1;strokeColor=none;fillColor=none;spacingLeft=4;spacingRight=4;whiteSpace=wrap;overflow=hidden;rotatable=0;points=[[0,0.5],[1,0.5]];portConstraint=eastwest;" parent="21ea969265ad0168-18" vertex="1">
          <mxGeometry y="26" width="160" height="26" as="geometry" />
        </mxCell>
        <mxCell id="21ea969265ad0168-20" value="Processed Data" style="text;html=1;strokeColor=none;fillColor=none;spacingLeft=4;spacingRight=4;whiteSpace=wrap;overflow=hidden;rotatable=0;points=[[0,0.5],[1,0.5]];portConstraint=eastwest;" parent="21ea969265ad0168-18" vertex="1">
          <mxGeometry y="52" width="160" height="26" as="geometry" />
        </mxCell>
        <mxCell id="xQ2Ws-LIwKOXXfK9XPwc-2" value="Arduino" style="swimlane;html=1;fontStyle=0;childLayout=stackLayout;horizontal=1;startSize=26;fillColor=#dae8fc;horizontalStack=0;resizeParent=1;resizeLast=0;collapsible=1;marginBottom=0;swimlaneFillColor=#ffffff;align=center;rounded=1;shadow=0;comic=0;labelBackgroundColor=none;strokeWidth=1;fontFamily=Verdana;fontSize=12;strokeColor=#6c8ebf;" vertex="1" parent="1">
          <mxGeometry x="320" y="40" width="160" height="80" as="geometry" />
        </mxCell>
        <mxCell id="xQ2Ws-LIwKOXXfK9XPwc-3" value="IR data" style="text;html=1;strokeColor=none;fillColor=none;spacingLeft=4;spacingRight=4;whiteSpace=wrap;overflow=hidden;rotatable=0;points=[[0,0.5],[1,0.5]];portConstraint=eastwest;" vertex="1" parent="xQ2Ws-LIwKOXXfK9XPwc-2">
          <mxGeometry y="26" width="160" height="26" as="geometry" />
        </mxCell>
        <mxCell id="xQ2Ws-LIwKOXXfK9XPwc-4" value="Motor Control" style="text;html=1;strokeColor=none;fillColor=none;spacingLeft=4;spacingRight=4;whiteSpace=wrap;overflow=hidden;rotatable=0;points=[[0,0.5],[1,0.5]];portConstraint=eastwest;" vertex="1" parent="xQ2Ws-LIwKOXXfK9XPwc-2">
          <mxGeometry y="52" width="160" height="26" as="geometry" />
        </mxCell>
        <mxCell id="xQ2Ws-LIwKOXXfK9XPwc-6" value="" style="edgeStyle=orthogonalEdgeStyle;rounded=0;orthogonalLoop=1;jettySize=auto;html=1;entryX=0.5;entryY=0;entryDx=0;entryDy=0;fillColor=#ffe6cc;strokeColor=#d79b00;strokeWidth=4;" edge="1" parent="1" source="xQ2Ws-LIwKOXXfK9XPwc-5" target="21ea969265ad0168-18">
          <mxGeometry relative="1" as="geometry" />
        </mxCell>
        <mxCell id="xQ2Ws-LIwKOXXfK9XPwc-5" value="Pi Camera" style="html=1;rounded=0;shadow=0;comic=0;labelBackgroundColor=none;strokeWidth=2;fontFamily=Verdana;fontSize=12;align=center;shape=mxgraph.ios7ui.horLines;fillColor=#f8cecc;strokeColor=#b85450;" vertex="1" parent="1">
          <mxGeometry x="30" y="40" width="135" height="50" as="geometry" />
        </mxCell>
        <mxCell id="xQ2Ws-LIwKOXXfK9XPwc-9" style="edgeStyle=orthogonalEdgeStyle;rounded=0;orthogonalLoop=1;jettySize=auto;html=1;entryX=0.5;entryY=0;entryDx=0;entryDy=0;fillColor=#ffe6cc;strokeColor=#d79b00;strokeWidth=4;" edge="1" parent="1" source="xQ2Ws-LIwKOXXfK9XPwc-8" target="xQ2Ws-LIwKOXXfK9XPwc-2">
          <mxGeometry relative="1" as="geometry">
            <Array as="points">
              <mxPoint x="640" y="65" />
              <mxPoint x="640" y="20" />
              <mxPoint x="400" y="20" />
            </Array>
          </mxGeometry>
        </mxCell>
        <mxCell id="xQ2Ws-LIwKOXXfK9XPwc-12" value="Encoder, IR" style="edgeLabel;html=1;align=center;verticalAlign=middle;resizable=0;points=[];" vertex="1" connectable="0" parent="xQ2Ws-LIwKOXXfK9XPwc-9">
          <mxGeometry x="0.2567" y="4" relative="1" as="geometry">
            <mxPoint x="1" as="offset" />
          </mxGeometry>
        </mxCell>
        <mxCell id="xQ2Ws-LIwKOXXfK9XPwc-8" value="Arduino" style="html=1;rounded=0;shadow=0;comic=0;labelBackgroundColor=none;strokeWidth=2;fontFamily=Verdana;fontSize=12;align=center;shape=mxgraph.ios7ui.horLines;fillColor=#f8cecc;strokeColor=#b85450;" vertex="1" parent="1">
          <mxGeometry x="695" y="40" width="135" height="50" as="geometry" />
        </mxCell>
        <mxCell id="xQ2Ws-LIwKOXXfK9XPwc-10" style="edgeStyle=orthogonalEdgeStyle;rounded=0;orthogonalLoop=1;jettySize=auto;html=1;entryX=0;entryY=0.78;entryDx=0;entryDy=0;entryPerimeter=0;fillColor=#6d8764;strokeColor=#3A5431;strokeWidth=5;exitX=1;exitY=0.15;exitDx=0;exitDy=0;exitPerimeter=0;" edge="1" parent="1" source="xQ2Ws-LIwKOXXfK9XPwc-2" target="xQ2Ws-LIwKOXXfK9XPwc-8">
          <mxGeometry relative="1" as="geometry">
            <Array as="points">
              <mxPoint x="570" y="52" />
              <mxPoint x="570" y="79" />
            </Array>
          </mxGeometry>
        </mxCell>
        <mxCell id="xQ2Ws-LIwKOXXfK9XPwc-11" value="Motor Control" style="edgeLabel;html=1;align=center;verticalAlign=middle;resizable=0;points=[];" vertex="1" connectable="0" parent="xQ2Ws-LIwKOXXfK9XPwc-10">
          <mxGeometry x="-0.1652" y="-3" relative="1" as="geometry">
            <mxPoint x="18" y="-2" as="offset" />
          </mxGeometry>
        </mxCell>
        <mxCell id="xQ2Ws-LIwKOXXfK9XPwc-34" style="edgeStyle=orthogonalEdgeStyle;rounded=0;orthogonalLoop=1;jettySize=auto;html=1;entryX=0.5;entryY=0;entryDx=0;entryDy=0;fillColor=#ffe6cc;strokeColor=#d79b00;strokeWidth=4;" edge="1" parent="1" source="xQ2Ws-LIwKOXXfK9XPwc-13" target="xQ2Ws-LIwKOXXfK9XPwc-31">
          <mxGeometry relative="1" as="geometry" />
        </mxCell>
        <mxCell id="xQ2Ws-LIwKOXXfK9XPwc-13" value="Host" style="html=1;rounded=0;shadow=0;comic=0;labelBackgroundColor=none;strokeWidth=2;fontFamily=Verdana;fontSize=12;align=center;shape=mxgraph.ios7ui.horLines;fillColor=#f8cecc;strokeColor=#b85450;" vertex="1" parent="1">
          <mxGeometry x="830" y="170" width="135" height="50" as="geometry" />
        </mxCell>
        <mxCell id="xQ2Ws-LIwKOXXfK9XPwc-14" value="FSM Planner" style="swimlane;html=1;fontStyle=0;childLayout=stackLayout;horizontal=1;startSize=26;fillColor=#dae8fc;horizontalStack=0;resizeParent=1;resizeLast=0;collapsible=1;marginBottom=0;swimlaneFillColor=#ffffff;align=center;rounded=1;shadow=0;comic=0;labelBackgroundColor=none;strokeWidth=1;fontFamily=Verdana;fontSize=12;strokeColor=#6c8ebf;" vertex="1" parent="1">
          <mxGeometry x="430" y="310" width="160" height="52" as="geometry" />
        </mxCell>
        <mxCell id="xQ2Ws-LIwKOXXfK9XPwc-15" value="Motor Control" style="text;html=1;strokeColor=none;fillColor=none;spacingLeft=4;spacingRight=4;whiteSpace=wrap;overflow=hidden;rotatable=0;points=[[0,0.5],[1,0.5]];portConstraint=eastwest;" vertex="1" parent="xQ2Ws-LIwKOXXfK9XPwc-14">
          <mxGeometry y="26" width="160" height="26" as="geometry" />
        </mxCell>
        <mxCell id="xQ2Ws-LIwKOXXfK9XPwc-35" style="edgeStyle=orthogonalEdgeStyle;rounded=0;orthogonalLoop=1;jettySize=auto;html=1;entryX=0.5;entryY=0;entryDx=0;entryDy=0;fillColor=#ffe6cc;strokeColor=#d79b00;strokeWidth=4;" edge="1" parent="1" source="xQ2Ws-LIwKOXXfK9XPwc-18" target="xQ2Ws-LIwKOXXfK9XPwc-19">
          <mxGeometry relative="1" as="geometry" />
        </mxCell>
        <mxCell id="xQ2Ws-LIwKOXXfK9XPwc-18" value="Gamepad" style="html=1;rounded=0;shadow=0;comic=0;labelBackgroundColor=none;strokeWidth=2;fontFamily=Verdana;fontSize=12;align=center;shape=mxgraph.ios7ui.horLines;fillColor=#f8cecc;strokeColor=#b85450;" vertex="1" parent="1">
          <mxGeometry x="870" y="362" width="135" height="50" as="geometry" />
        </mxCell>
        <mxCell id="xQ2Ws-LIwKOXXfK9XPwc-19" value="JoyStick Controller" style="swimlane;html=1;fontStyle=0;childLayout=stackLayout;horizontal=1;startSize=26;fillColor=#dae8fc;horizontalStack=0;resizeParent=1;resizeLast=0;collapsible=1;marginBottom=0;swimlaneFillColor=#ffffff;align=center;rounded=1;shadow=0;comic=0;labelBackgroundColor=none;strokeWidth=1;fontFamily=Verdana;fontSize=12;strokeColor=#6c8ebf;" vertex="1" parent="1">
          <mxGeometry x="627.5" y="370" width="160" height="60" as="geometry" />
        </mxCell>
        <mxCell id="xQ2Ws-LIwKOXXfK9XPwc-20" value="JoyStick Data" style="text;html=1;strokeColor=none;fillColor=none;spacingLeft=4;spacingRight=4;whiteSpace=wrap;overflow=hidden;rotatable=0;points=[[0,0.5],[1,0.5]];portConstraint=eastwest;" vertex="1" parent="xQ2Ws-LIwKOXXfK9XPwc-19">
          <mxGeometry y="26" width="160" height="24" as="geometry" />
        </mxCell>
        <mxCell id="xQ2Ws-LIwKOXXfK9XPwc-31" value="Livraison" style="swimlane;html=1;fontStyle=0;childLayout=stackLayout;horizontal=1;startSize=26;fillColor=#dae8fc;horizontalStack=0;resizeParent=1;resizeLast=0;collapsible=1;marginBottom=0;swimlaneFillColor=#ffffff;align=center;rounded=1;shadow=0;comic=0;labelBackgroundColor=none;strokeWidth=1;fontFamily=Verdana;fontSize=12;strokeColor=#6c8ebf;" vertex="1" parent="1">
          <mxGeometry x="610" y="180" width="160" height="60" as="geometry" />
        </mxCell>
        <mxCell id="xQ2Ws-LIwKOXXfK9XPwc-32" value="Emplacement Livraison" style="text;html=1;strokeColor=none;fillColor=none;spacingLeft=4;spacingRight=4;whiteSpace=wrap;overflow=hidden;rotatable=0;points=[[0,0.5],[1,0.5]];portConstraint=eastwest;" vertex="1" parent="xQ2Ws-LIwKOXXfK9XPwc-31">
          <mxGeometry y="26" width="160" height="24" as="geometry" />
        </mxCell>
        <mxCell id="xQ2Ws-LIwKOXXfK9XPwc-36" style="edgeStyle=orthogonalEdgeStyle;rounded=0;orthogonalLoop=1;jettySize=auto;html=1;fillColor=#e51400;strokeColor=#B20000;endSize=6;strokeWidth=4;" edge="1" parent="1" source="xQ2Ws-LIwKOXXfK9XPwc-32" target="xQ2Ws-LIwKOXXfK9XPwc-14">
          <mxGeometry relative="1" as="geometry" />
        </mxCell>
        <mxCell id="xQ2Ws-LIwKOXXfK9XPwc-38" style="edgeStyle=orthogonalEdgeStyle;rounded=0;orthogonalLoop=1;jettySize=auto;html=1;entryX=0.006;entryY=0.155;entryDx=0;entryDy=0;entryPerimeter=0;fillColor=#6a00ff;strokeColor=#3700CC;strokeWidth=4;" edge="1" parent="1" source="21ea969265ad0168-20" target="xQ2Ws-LIwKOXXfK9XPwc-14">
          <mxGeometry relative="1" as="geometry" />
        </mxCell>
        <mxCell id="xQ2Ws-LIwKOXXfK9XPwc-39" style="edgeStyle=orthogonalEdgeStyle;rounded=0;orthogonalLoop=1;jettySize=auto;html=1;entryX=0.25;entryY=0;entryDx=0;entryDy=0;fillColor=#6a00ff;strokeColor=#3700CC;strokeWidth=4;" edge="1" parent="1" source="xQ2Ws-LIwKOXXfK9XPwc-3" target="xQ2Ws-LIwKOXXfK9XPwc-14">
          <mxGeometry relative="1" as="geometry" />
        </mxCell>
        <mxCell id="xQ2Ws-LIwKOXXfK9XPwc-40" value="IR Data" style="edgeLabel;html=1;align=center;verticalAlign=middle;resizable=0;points=[];" vertex="1" connectable="0" parent="xQ2Ws-LIwKOXXfK9XPwc-39">
          <mxGeometry x="0.1271" y="-1" relative="1" as="geometry">
            <mxPoint as="offset" />
          </mxGeometry>
        </mxCell>
        <mxCell id="xQ2Ws-LIwKOXXfK9XPwc-43" value="Mode Selection" style="swimlane;html=1;fontStyle=0;childLayout=stackLayout;horizontal=1;startSize=26;fillColor=#dae8fc;horizontalStack=0;resizeParent=1;resizeLast=0;collapsible=1;marginBottom=0;swimlaneFillColor=#ffffff;align=center;rounded=1;shadow=0;comic=0;labelBackgroundColor=none;strokeWidth=1;fontFamily=Verdana;fontSize=12;strokeColor=#6c8ebf;" vertex="1" parent="1">
          <mxGeometry x="280" y="450" width="160" height="52" as="geometry" />
        </mxCell>
        <mxCell id="xQ2Ws-LIwKOXXfK9XPwc-44" value="Motor Control" style="text;html=1;strokeColor=none;fillColor=none;spacingLeft=4;spacingRight=4;whiteSpace=wrap;overflow=hidden;rotatable=0;points=[[0,0.5],[1,0.5]];portConstraint=eastwest;" vertex="1" parent="xQ2Ws-LIwKOXXfK9XPwc-43">
          <mxGeometry y="26" width="160" height="24" as="geometry" />
        </mxCell>
        <mxCell id="xQ2Ws-LIwKOXXfK9XPwc-45" style="edgeStyle=orthogonalEdgeStyle;rounded=0;orthogonalLoop=1;jettySize=auto;html=1;entryX=0.5;entryY=0;entryDx=0;entryDy=0;fillColor=#6a00ff;strokeColor=#3700CC;strokeWidth=4;" edge="1" parent="1" source="xQ2Ws-LIwKOXXfK9XPwc-15" target="xQ2Ws-LIwKOXXfK9XPwc-43">
          <mxGeometry relative="1" as="geometry" />
        </mxCell>
        <mxCell id="xQ2Ws-LIwKOXXfK9XPwc-46" style="edgeStyle=orthogonalEdgeStyle;rounded=0;orthogonalLoop=1;jettySize=auto;html=1;entryX=1;entryY=0.25;entryDx=0;entryDy=0;fillColor=#e51400;strokeColor=#B20000;endSize=6;strokeWidth=4;" edge="1" parent="1" source="xQ2Ws-LIwKOXXfK9XPwc-20" target="xQ2Ws-LIwKOXXfK9XPwc-43">
          <mxGeometry relative="1" as="geometry" />
        </mxCell>
        <mxCell id="xQ2Ws-LIwKOXXfK9XPwc-47" style="edgeStyle=orthogonalEdgeStyle;rounded=0;orthogonalLoop=1;jettySize=auto;html=1;fillColor=#6a00ff;strokeColor=#3700CC;strokeWidth=4;" edge="1" parent="1" source="xQ2Ws-LIwKOXXfK9XPwc-44" target="xQ2Ws-LIwKOXXfK9XPwc-4">
          <mxGeometry relative="1" as="geometry">
            <Array as="points">
              <mxPoint x="210" y="478" />
              <mxPoint x="210" y="292" />
              <mxPoint x="300" y="292" />
              <mxPoint x="300" y="105" />
            </Array>
          </mxGeometry>
        </mxCell>
        <mxCell id="xQ2Ws-LIwKOXXfK9XPwc-48" value="Hardware" style="whiteSpace=wrap;html=1;fillColor=#f8cecc;strokeColor=#b85450;" vertex="1" parent="1">
          <mxGeometry x="1005" y="10" width="80" height="30" as="geometry" />
        </mxCell>
        <mxCell id="xQ2Ws-LIwKOXXfK9XPwc-49" value="Node" style="whiteSpace=wrap;html=1;fillColor=#dae8fc;strokeColor=#6c8ebf;" vertex="1" parent="1">
          <mxGeometry x="1005" y="50" width="80" height="30" as="geometry" />
        </mxCell>
        <mxCell id="xQ2Ws-LIwKOXXfK9XPwc-50" value="Hardware -&amp;gt; Software" style="whiteSpace=wrap;html=1;fillColor=#ffe6cc;strokeColor=#d79b00;strokeWidth=4;" vertex="1" parent="1">
          <mxGeometry x="1005" y="90" width="80" height="40" as="geometry" />
        </mxCell>
        <mxCell id="xQ2Ws-LIwKOXXfK9XPwc-51" value="IPC" style="whiteSpace=wrap;html=1;fillColor=#6a00ff;strokeColor=#3700CC;strokeWidth=4;fontColor=#ffffff;" vertex="1" parent="1">
          <mxGeometry x="1005" y="140" width="80" height="40" as="geometry" />
        </mxCell>
        <mxCell id="xQ2Ws-LIwKOXXfK9XPwc-52" value="TCP IP" style="whiteSpace=wrap;html=1;fillColor=#e51400;strokeColor=#B20000;strokeWidth=4;fontColor=#ffffff;" vertex="1" parent="1">
          <mxGeometry x="1005" y="190" width="80" height="40" as="geometry" />
        </mxCell>
        <mxCell id="xQ2Ws-LIwKOXXfK9XPwc-53" value="Software -&amp;gt; Hardware" style="whiteSpace=wrap;html=1;fillColor=#6d8764;strokeColor=#3A5431;strokeWidth=4;fontColor=#ffffff;" vertex="1" parent="1">
          <mxGeometry x="1005" y="240" width="80" height="40" as="geometry" />
        </mxCell>
      </root>
    </mxGraphModel>
  </diagram>
</mxfile>
